<svg width="80" height="67" xmlns="http://www.w3.org/2000/svg">
 <!-- Created with Method Draw - http://github.com/duopixel/Method-Draw/ -->

 <g>
  <title>background</title>
  <rect fill="#fff" id="canvas_background" height="69" width="82" y="-1" x="-1"/>
  <g display="none" overflow="visible" y="0" x="0" height="100%" width="100%" id="canvasGrid">
   <rect fill="url(#gridpattern)" stroke-width="0" y="0" x="0" height="100%" width="100%"/>
  </g>
 </g>
 <g>
  <title>Layer 1</title>
  <g stroke="null" id="svg_22">
   <g stroke="null" transform="matrix(2.5873617652863525,0,0,2.5873617652863525,-8.18407667304538,-26.678571053577777) " id="svg_5">
    <path stroke="null" id="svg_6" fill="#b21320" d="m16.186848,14.050088c0,-1.584 1.284,-2.869 2.869,-2.869s2.869,1.284 2.869,2.869s-1.284,2.869 -2.869,2.869s-2.869,-1.285 -2.869,-2.869zm3.736,10.248c0.616,-0.658 1.479,-1.075 2.575,-1.245c0.249,-0.038 0.513,-0.061 0.786,-0.077c0.088,-0.003 0.171,-0.012 0.259,-0.012l1.707,0c-1.253,-0.521 -2.141,-1.761 -2.141,-3.203c0,-0.575 0.143,-1.12 0.394,-1.596c-0.89,-0.325 -1.711,-0.32 -1.711,-0.32l-5.753,0c-0.643,0.015 -1.183,0.096 -1.636,0.23c0.281,0.5 0.442,1.076 0.442,1.686c0,1.442 -0.887,2.681 -2.142,3.203l1.412,0c0.017,-0.002 0.033,-0.002 0.051,-0.002c0.1,0 0.209,0.004 0.319,0.012c0.235,0.017 0.492,0.053 0.758,0.107c1.444,0.303 3.186,1.253 3.379,3.527l0.002,0.051l0,1.774l0.362,0l0.002,-1.774c-0.002,-0.025 -0.052,-1.307 0.935,-2.361zm-8.723,-1.638c1.582,0 2.869,-1.287 2.869,-2.871s-1.287,-2.869 -2.869,-2.869c-1.584,0 -2.869,1.285 -2.869,2.869c0,1.583 1.286,2.871 2.869,2.871zm2.735,0.925l-5.752,0c-4.118,0.076 -3.975,3.103 -3.975,3.103l-0.001,7.056l0.004,0c0,0.017 -0.003,0.035 -0.003,0.05c0,0.67 0.545,1.211 1.213,1.211c0.669,0 1.209,-0.541 1.209,-1.211c0,-0.016 -0.002,-0.033 -0.005,-0.05l0.005,0l0,-6.532l0.758,0l-0.006,6.958l7.266,0.006l-0.006,-6.996l0.786,0l0,6.563l0.004,0c0,0.003 0,0.006 0,0.01c0,0.669 0.541,1.211 1.207,1.211c0.669,0 1.211,-0.542 1.211,-1.211c0,-0.004 0,-0.007 0,-0.01l0,-7.056c-0.265,-3.149 -3.915,-3.102 -3.915,-3.102zm12.457,-0.926c1.585,0 2.87,-1.285 2.87,-2.87s-1.285,-2.87 -2.87,-2.87s-2.87,1.285 -2.87,2.87c0.001,1.585 1.285,2.87 2.87,2.87zm2.736,0.926l-5.754,0c-4.119,0.076 -3.973,3.103 -3.973,3.103l-0.002,7.056l0.005,0c0,0.017 -0.003,0.035 -0.003,0.05c0,0.67 0.544,1.211 1.212,1.211c0.669,0 1.208,-0.541 1.208,-1.211c0,-0.016 -0.003,-0.033 -0.004,-0.05l0.004,0l0,-6.532l0.76,0l-0.009,6.958l7.266,0.006l-0.006,-6.996l0.786,0l0,6.563l0.002,0c0,0.003 0,0.006 0,0.01c0,0.669 0.542,1.211 1.21,1.211c0.667,0 1.209,-0.542 1.209,-1.211c0,-0.004 0,-0.007 0,-0.01l0,-7.056c-0.262,-3.149 -3.911,-3.102 -3.911,-3.102z"/>
   </g>
   <g stroke="null" transform="matrix(2.5873617652863525,0,0,2.5873617652863525,-8.18407667304538,-26.678571053577777) " id="svg_7"/>
   <g stroke="null" transform="matrix(2.5873617652863525,0,0,2.5873617652863525,-8.18407667304538,-26.678571053577777) " id="svg_8"/>
   <g stroke="null" transform="matrix(2.5873617652863525,0,0,2.5873617652863525,-8.18407667304538,-26.678571053577777) " id="svg_9"/>
   <g stroke="null" transform="matrix(2.5873617652863525,0,0,2.5873617652863525,-8.18407667304538,-26.678571053577777) " id="svg_10"/>
   <g stroke="null" transform="matrix(2.5873617652863525,0,0,2.5873617652863525,-8.18407667304538,-26.678571053577777) " id="svg_11"/>
   <g stroke="null" transform="matrix(2.5873617652863525,0,0,2.5873617652863525,-8.18407667304538,-26.678571053577777) " id="svg_12"/>
   <g stroke="null" transform="matrix(2.5873617652863525,0,0,2.5873617652863525,-8.18407667304538,-26.678571053577777) " id="svg_13"/>
   <g stroke="null" transform="matrix(2.5873617652863525,0,0,2.5873617652863525,-8.18407667304538,-26.678571053577777) " id="svg_14"/>
   <g stroke="null" transform="matrix(2.5873617652863525,0,0,2.5873617652863525,-8.18407667304538,-26.678571053577777) " id="svg_15"/>
   <g stroke="null" transform="matrix(2.5873617652863525,0,0,2.5873617652863525,-8.18407667304538,-26.678571053577777) " id="svg_16"/>
   <g stroke="null" transform="matrix(2.5873617652863525,0,0,2.5873617652863525,-8.18407667304538,-26.678571053577777) " id="svg_17"/>
   <g stroke="null" transform="matrix(2.5873617652863525,0,0,2.5873617652863525,-8.18407667304538,-26.678571053577777) " id="svg_18"/>
   <g stroke="null" transform="matrix(2.5873617652863525,0,0,2.5873617652863525,-8.18407667304538,-26.678571053577777) " id="svg_19"/>
   <g stroke="null" transform="matrix(2.5873617652863525,0,0,2.5873617652863525,-8.18407667304538,-26.678571053577777) " id="svg_20"/>
   <g stroke="null" transform="matrix(2.5873617652863525,0,0,2.5873617652863525,-8.18407667304538,-26.678571053577777) " id="svg_21"/>
  </g>
 </g>
</svg>